<?xml version="1.0" encoding="UTF-8"?><svg id="Layer_1" xmlns="http://www.w3.org/2000/svg" viewBox="0 0 396.4 28.48"><defs><style>.cls-1{fill:#fff;}.cls-2{fill:#fff;}</style></defs><path class="cls-1" d="m.7,15.91c-.46-.46-.7-1.02-.7-1.68s.23-1.2.7-1.67c.46-.46,1.02-.7,1.68-.7s1.22.23,1.68.7c.46.46.7,1.02.7,1.67s-.23,1.22-.7,1.68c-.46.46-1.02.7-1.68.7s-1.22-.23-1.68-.7Zm0,5.94c-.46-.46-.7-1.02-.7-1.68s.23-1.22.7-1.68c.46-.46,1.02-.7,1.68-.7s1.22.23,1.68.7c.46.46.7,1.02.7,1.68s-.23,1.22-.7,1.68c-.46.46-1.02.7-1.68.7s-1.22-.23-1.68-.7Zm0,5.94c-.46-.46-.7-1.02-.7-1.68s.23-1.22.7-1.68c.46-.46,1.02-.7,1.68-.7s1.22.23,1.68.7c.46.46.7,1.02.7,1.68s-.23,1.22-.7,1.68c-.46.46-1.02.7-1.68.7s-1.22-.23-1.68-.7ZM6.63,9.99c-.46-.46-.7-1.02-.7-1.68s.23-1.22.7-1.68c.46-.46,1.02-.7,1.68-.7s1.22.23,1.68.7c.46.46.7,1.02.7,1.68s-.23,1.22-.7,1.68-1.02.7-1.68.7-1.22-.23-1.68-.7Zm0,5.92c-.46-.46-.7-1.02-.7-1.68s.23-1.2.7-1.67c.46-.46,1.02-.7,1.68-.7s1.22.23,1.68.7c.46.46.7,1.02.7,1.67s-.23,1.22-.7,1.68c-.46.46-1.02.7-1.68.7s-1.22-.23-1.68-.7Zm5.94-11.86c-.46-.46-.7-1.02-.7-1.68s.23-1.22.7-1.68c.46-.46,1.02-.7,1.68-.7s1.2.23,1.67.7c.46.46.7,1.02.7,1.68s-.23,1.22-.7,1.68c-.46.46-1.02.7-1.67.7s-1.22-.23-1.68-.7Zm0,11.86c-.46-.46-.7-1.02-.7-1.68s.23-1.2.7-1.67c.46-.46,1.02-.7,1.68-.7s1.2.23,1.67.7.7,1.02.7,1.67-.23,1.22-.7,1.68c-.46.46-1.02.7-1.67.7s-1.22-.23-1.68-.7Zm5.92-5.92c-.46-.46-.7-1.02-.7-1.68s.23-1.22.7-1.68,1.02-.7,1.68-.7,1.22.23,1.68.7c.46.46.7,1.02.7,1.68s-.23,1.22-.7,1.68-1.02.7-1.68.7-1.22-.23-1.68-.7Zm0,5.92c-.46-.46-.7-1.02-.7-1.68s.23-1.2.7-1.67c.46-.46,1.02-.7,1.68-.7s1.22.23,1.68.7c.46.46.7,1.02.7,1.67s-.23,1.22-.7,1.68c-.46.46-1.02.7-1.68.7s-1.22-.23-1.68-.7Zm5.94,0c-.46-.46-.7-1.02-.7-1.68s.23-1.2.7-1.67c.46-.46,1.02-.7,1.68-.7s1.22.23,1.68.7c.46.46.7,1.02.7,1.67s-.23,1.22-.7,1.68c-.46.46-1.02.7-1.68.7s-1.22-.23-1.68-.7Zm0,5.94c-.46-.46-.7-1.02-.7-1.68s.23-1.22.7-1.68,1.02-.7,1.68-.7,1.22.23,1.68.7c.46.46.7,1.02.7,1.68s-.23,1.22-.7,1.68c-.46.46-1.02.7-1.68.7s-1.22-.23-1.68-.7Zm0,5.94c-.46-.46-.7-1.02-.7-1.68s.23-1.22.7-1.68,1.02-.7,1.68-.7,1.22.23,1.68.7c.46.46.7,1.02.7,1.68s-.23,1.22-.7,1.68c-.46.46-1.02.7-1.68.7s-1.22-.23-1.68-.7Z"/><path class="cls-1" d="m36.27,4.05c-.46-.46-.7-1.02-.7-1.68s.23-1.22.7-1.68c.46-.46,1.02-.7,1.68-.7s1.22.23,1.68.7c.46.46.7,1.02.7,1.68s-.23,1.22-.7,1.68-1.02.7-1.68.7-1.22-.23-1.68-.7Zm0,5.94c-.46-.46-.7-1.02-.7-1.68s.23-1.22.7-1.68c.46-.46,1.02-.7,1.68-.7s1.22.23,1.68.7c.46.46.7,1.02.7,1.68s-.23,1.22-.7,1.68-1.02.7-1.68.7-1.22-.23-1.68-.7Zm0,5.92c-.46-.46-.7-1.02-.7-1.68s.23-1.2.7-1.67c.46-.46,1.02-.7,1.68-.7s1.22.23,1.68.7c.46.46.7,1.02.7,1.67s-.23,1.22-.7,1.68c-.46.46-1.02.7-1.68.7s-1.22-.23-1.68-.7Zm0,5.94c-.46-.46-.7-1.02-.7-1.68s.23-1.22.7-1.68c.46-.46,1.02-.7,1.68-.7s1.22.23,1.68.7c.46.46.7,1.02.7,1.68s-.23,1.22-.7,1.68c-.46.46-1.02.7-1.68.7s-1.22-.23-1.68-.7Zm0,5.94c-.46-.46-.7-1.02-.7-1.68s.23-1.22.7-1.68c.46-.46,1.02-.7,1.68-.7s1.22.23,1.68.7c.46.46.7,1.02.7,1.68s-.23,1.22-.7,1.68c-.46.46-1.02.7-1.68.7s-1.22-.23-1.68-.7Zm5.94-17.8c-.46-.46-.7-1.02-.7-1.68s.23-1.22.7-1.68c.46-.46,1.02-.7,1.68-.7s1.22.23,1.68.7c.46.46.7,1.02.7,1.68s-.23,1.22-.7,1.68-1.02.7-1.68.7-1.22-.23-1.68-.7Zm5.94,5.92c-.46-.46-.7-1.02-.7-1.68s.23-1.2.7-1.67c.46-.46,1.02-.7,1.68-.7s1.2.23,1.67.7.7,1.02.7,1.67-.23,1.22-.7,1.68c-.46.46-1.02.7-1.67.7s-1.22-.23-1.68-.7Zm5.92-5.92c-.46-.46-.7-1.02-.7-1.68s.23-1.22.7-1.68,1.02-.7,1.68-.7,1.22.23,1.68.7c.46.46.7,1.02.7,1.68s-.23,1.22-.7,1.68-1.02.7-1.68.7-1.22-.23-1.68-.7Zm5.94-5.94c-.46-.46-.7-1.02-.7-1.68s.23-1.22.7-1.68,1.02-.7,1.68-.7,1.22.23,1.68.7c.46.46.7,1.02.7,1.68s-.23,1.22-.7,1.68-1.02.7-1.68.7-1.22-.23-1.68-.7Zm0,5.94c-.46-.46-.7-1.02-.7-1.68s.23-1.22.7-1.68,1.02-.7,1.68-.7,1.22.23,1.68.7c.46.46.7,1.02.7,1.68s-.23,1.22-.7,1.68-1.02.7-1.68.7-1.22-.23-1.68-.7Zm0,5.92c-.46-.46-.7-1.02-.7-1.68s.23-1.2.7-1.67c.46-.46,1.02-.7,1.68-.7s1.22.23,1.68.7c.46.46.7,1.02.7,1.67s-.23,1.22-.7,1.68c-.46.46-1.02.7-1.68.7s-1.22-.23-1.68-.7Zm0,5.94c-.46-.46-.7-1.02-.7-1.68s.23-1.22.7-1.68,1.02-.7,1.68-.7,1.22.23,1.68.7c.46.46.7,1.02.7,1.68s-.23,1.22-.7,1.68c-.46.46-1.02.7-1.68.7s-1.22-.23-1.68-.7Zm0,5.94c-.46-.46-.7-1.02-.7-1.68s.23-1.22.7-1.68,1.02-.7,1.68-.7,1.22.23,1.68.7c.46.46.7,1.02.7,1.68s-.23,1.22-.7,1.68c-.46.46-1.02.7-1.68.7s-1.22-.23-1.68-.7Z"/><path class="cls-1" d="m71.85,4.05c-.46-.46-.7-1.02-.7-1.68s.23-1.22.7-1.68c.46-.46,1.02-.7,1.68-.7s1.22.23,1.68.7c.46.46.7,1.02.7,1.68s-.23,1.22-.7,1.68-1.02.7-1.68.7-1.22-.23-1.68-.7Zm0,5.94c-.46-.46-.7-1.02-.7-1.68s.23-1.22.7-1.68c.46-.46,1.02-.7,1.68-.7s1.22.23,1.68.7c.46.46.7,1.02.7,1.68s-.23,1.22-.7,1.68-1.02.7-1.68.7-1.22-.23-1.68-.7Zm0,5.92c-.46-.46-.7-1.02-.7-1.68s.23-1.2.7-1.67c.46-.46,1.02-.7,1.68-.7s1.22.23,1.68.7c.46.46.7,1.02.7,1.67s-.23,1.22-.7,1.68c-.46.46-1.02.7-1.68.7s-1.22-.23-1.68-.7Zm0,5.94c-.46-.46-.7-1.02-.7-1.68s.23-1.22.7-1.68c.46-.46,1.02-.7,1.68-.7s1.22.23,1.68.7c.46.46.7,1.02.7,1.68s-.23,1.22-.7,1.68c-.46.46-1.02.7-1.68.7s-1.22-.23-1.68-.7Zm0,5.94c-.46-.46-.7-1.02-.7-1.68s.23-1.22.7-1.68c.46-.46,1.02-.7,1.68-.7s1.22.23,1.68.7c.46.46.7,1.02.7,1.68s-.23,1.22-.7,1.68c-.46.46-1.02.7-1.68.7s-1.22-.23-1.68-.7Zm5.94-23.73c-.46-.46-.7-1.02-.7-1.68s.23-1.22.7-1.68c.46-.46,1.02-.7,1.68-.7s1.22.23,1.68.7c.46.46.7,1.02.7,1.68s-.23,1.22-.7,1.68-1.02.7-1.68.7-1.22-.23-1.68-.7Zm0,11.86c-.46-.46-.7-1.02-.7-1.68s.23-1.2.7-1.67c.46-.46,1.02-.7,1.68-.7s1.22.23,1.68.7c.46.46.7,1.02.7,1.67s-.23,1.22-.7,1.68c-.46.46-1.02.7-1.68.7s-1.22-.23-1.68-.7Zm5.94-11.86c-.46-.46-.7-1.02-.7-1.68s.23-1.22.7-1.68c.46-.46,1.02-.7,1.68-.7s1.2.23,1.67.7c.46.46.7,1.02.7,1.68s-.23,1.22-.7,1.68c-.46.46-1.02.7-1.67.7s-1.22-.23-1.68-.7Zm0,11.86c-.46-.46-.7-1.02-.7-1.68s.23-1.2.7-1.67c.46-.46,1.02-.7,1.68-.7s1.2.23,1.67.7.7,1.02.7,1.67-.23,1.22-.7,1.68c-.46.46-1.02.7-1.67.7s-1.22-.23-1.68-.7Zm5.92-11.86c-.46-.46-.7-1.02-.7-1.68s.23-1.22.7-1.68,1.02-.7,1.68-.7,1.22.23,1.68.7c.46.46.7,1.02.7,1.68s-.23,1.22-.7,1.68-1.02.7-1.68.7-1.22-.23-1.68-.7Zm0,11.86c-.46-.46-.7-1.02-.7-1.68s.23-1.2.7-1.67c.46-.46,1.02-.7,1.68-.7s1.22.23,1.68.7c.46.46.7,1.02.7,1.67s-.23,1.22-.7,1.68c-.46.46-1.02.7-1.68.7s-1.22-.23-1.68-.7Zm5.94-5.92c-.46-.46-.7-1.02-.7-1.68s.23-1.22.7-1.68,1.02-.7,1.68-.7,1.22.23,1.68.7c.46.46.7,1.02.7,1.68s-.23,1.22-.7,1.68-1.02.7-1.68.7-1.22-.23-1.68-.7Z"/><path class="cls-2" d="m107.43,4.05c-.46-.46-.7-1.02-.7-1.68s.23-1.22.7-1.68c.46-.46,1.02-.7,1.68-.7s1.22.23,1.68.7c.46.46.7,1.02.7,1.68s-.23,1.22-.7,1.68-1.02.7-1.68.7-1.22-.23-1.68-.7Zm0,5.94c-.46-.46-.7-1.02-.7-1.68s.23-1.22.7-1.68c.46-.46,1.02-.7,1.68-.7s1.22.23,1.68.7c.46.46.7,1.02.7,1.68s-.23,1.22-.7,1.68-1.02.7-1.68.7-1.22-.23-1.68-.7Zm0,5.92c-.46-.46-.7-1.02-.7-1.68s.23-1.2.7-1.67c.46-.46,1.02-.7,1.68-.7s1.22.23,1.68.7c.46.46.7,1.02.7,1.67s-.23,1.22-.7,1.68c-.46.46-1.02.7-1.68.7s-1.22-.23-1.68-.7Zm0,5.94c-.46-.46-.7-1.02-.7-1.68s.23-1.22.7-1.68c.46-.46,1.02-.7,1.68-.7s1.22.23,1.68.7c.46.46.7,1.02.7,1.68s-.23,1.22-.7,1.68c-.46.46-1.02.7-1.68.7s-1.22-.23-1.68-.7Zm0,5.94c-.46-.46-.7-1.02-.7-1.68s.23-1.22.7-1.68c.46-.46,1.02-.7,1.68-.7s1.22.23,1.68.7c.46.46.7,1.02.7,1.68s-.23,1.22-.7,1.68c-.46.46-1.02.7-1.68.7s-1.22-.23-1.68-.7Zm5.94-11.87c-.46-.46-.7-1.02-.7-1.68s.23-1.2.7-1.67c.46-.46,1.02-.7,1.68-.7s1.22.23,1.68.7c.46.46.7,1.02.7,1.67s-.23,1.22-.7,1.68c-.46.46-1.02.7-1.68.7s-1.22-.23-1.68-.7Zm5.94,0c-.46-.46-.7-1.02-.7-1.68s.23-1.2.7-1.67c.46-.46,1.02-.7,1.68-.7s1.2.23,1.67.7.7,1.02.7,1.67-.23,1.22-.7,1.68c-.46.46-1.02.7-1.67.7s-1.22-.23-1.68-.7Zm5.92,0c-.46-.46-.7-1.02-.7-1.68s.23-1.2.7-1.67c.46-.46,1.02-.7,1.68-.7s1.22.23,1.68.7c.46.46.7,1.02.7,1.67s-.23,1.22-.7,1.68c-.46.46-1.02.7-1.68.7s-1.22-.23-1.68-.7Zm5.94-11.86c-.46-.46-.7-1.02-.7-1.68s.23-1.22.7-1.68,1.02-.7,1.68-.7,1.22.23,1.68.7c.46.46.7,1.02.7,1.68s-.23,1.22-.7,1.68-1.02.7-1.68.7-1.22-.23-1.68-.7Zm0,5.94c-.46-.46-.7-1.02-.7-1.68s.23-1.22.7-1.68,1.02-.7,1.68-.7,1.22.23,1.68.7c.46.46.7,1.02.7,1.68s-.23,1.22-.7,1.68-1.02.7-1.68.7-1.22-.23-1.68-.7Zm0,5.92c-.46-.46-.7-1.02-.7-1.68s.23-1.2.7-1.67c.46-.46,1.02-.7,1.68-.7s1.22.23,1.68.7c.46.46.7,1.02.7,1.67s-.23,1.22-.7,1.68c-.46.46-1.02.7-1.68.7s-1.22-.23-1.68-.7Zm0,5.94c-.46-.46-.7-1.02-.7-1.68s.23-1.22.7-1.68,1.02-.7,1.68-.7,1.22.23,1.68.7c.46.46.7,1.02.7,1.68s-.23,1.22-.7,1.68c-.46.46-1.02.7-1.68.7s-1.22-.23-1.68-.7Zm0,5.94c-.46-.46-.7-1.02-.7-1.68s.23-1.22.7-1.68,1.02-.7,1.68-.7,1.22.23,1.68.7c.46.46.7,1.02.7,1.68s-.23,1.22-.7,1.68c-.46.46-1.02.7-1.68.7s-1.22-.23-1.68-.7Z"/><path class="cls-2" d="m143,9.99c-.46-.46-.7-1.02-.7-1.68s.23-1.22.7-1.68c.46-.46,1.02-.7,1.68-.7s1.22.23,1.68.7c.46.46.7,1.02.7,1.68s-.23,1.22-.7,1.68-1.02.7-1.68.7-1.22-.23-1.68-.7Zm0,5.92c-.46-.46-.7-1.02-.7-1.68s.23-1.2.7-1.67c.46-.46,1.02-.7,1.68-.7s1.22.23,1.68.7c.46.46.7,1.02.7,1.67s-.23,1.22-.7,1.68c-.46.46-1.02.7-1.68.7s-1.22-.23-1.68-.7Zm0,5.94c-.46-.46-.7-1.02-.7-1.68s.23-1.22.7-1.68c.46-.46,1.02-.7,1.68-.7s1.22.23,1.68.7c.46.46.7,1.02.7,1.68s-.23,1.22-.7,1.68c-.46.46-1.02.7-1.68.7s-1.22-.23-1.68-.7Zm5.94-17.8c-.46-.46-.7-1.02-.7-1.68s.23-1.22.7-1.68c.46-.46,1.02-.7,1.68-.7s1.22.23,1.68.7c.46.46.7,1.02.7,1.68s-.23,1.22-.7,1.68-1.02.7-1.68.7-1.22-.23-1.68-.7Zm0,23.73c-.46-.46-.7-1.02-.7-1.68s.23-1.22.7-1.68c.46-.46,1.02-.7,1.68-.7s1.22.23,1.68.7c.46.46.7,1.02.7,1.68s-.23,1.22-.7,1.68c-.46.46-1.02.7-1.68.7s-1.22-.23-1.68-.7Zm5.94-23.73c-.46-.46-.7-1.02-.7-1.68s.23-1.22.7-1.68c.46-.46,1.02-.7,1.68-.7s1.2.23,1.67.7c.46.46.7,1.02.7,1.68s-.23,1.22-.7,1.68c-.46.46-1.02.7-1.67.7s-1.22-.23-1.68-.7Zm0,23.73c-.46-.46-.7-1.02-.7-1.68s.23-1.22.7-1.68c.46-.46,1.02-.7,1.68-.7s1.2.23,1.67.7c.46.46.7,1.02.7,1.68s-.23,1.22-.7,1.68c-.46.46-1.02.7-1.67.7s-1.22-.23-1.68-.7Zm5.92-23.73c-.46-.46-.7-1.02-.7-1.68s.23-1.22.7-1.68,1.02-.7,1.68-.7,1.22.23,1.68.7c.46.46.7,1.02.7,1.68s-.23,1.22-.7,1.68-1.02.7-1.68.7-1.22-.23-1.68-.7Zm0,23.73c-.46-.46-.7-1.02-.7-1.68s.23-1.22.7-1.68,1.02-.7,1.68-.7,1.22.23,1.68.7c.46.46.7,1.02.7,1.68s-.23,1.22-.7,1.68c-.46.46-1.02.7-1.68.7s-1.22-.23-1.68-.7Zm5.94-17.8c-.46-.46-.7-1.02-.7-1.68s.23-1.22.7-1.68,1.02-.7,1.68-.7,1.22.23,1.68.7c.46.46.7,1.02.7,1.68s-.23,1.22-.7,1.68-1.02.7-1.68.7-1.22-.23-1.68-.7Zm0,5.92c-.46-.46-.7-1.02-.7-1.68s.23-1.2.7-1.67c.46-.46,1.02-.7,1.68-.7s1.22.23,1.68.7c.46.46.7,1.02.7,1.67s-.23,1.22-.7,1.68c-.46.46-1.02.7-1.68.7s-1.22-.23-1.68-.7Zm0,5.94c-.46-.46-.7-1.02-.7-1.68s.23-1.22.7-1.68,1.02-.7,1.68-.7,1.22.23,1.68.7c.46.46.7,1.02.7,1.68s-.23,1.22-.7,1.68c-.46.46-1.02.7-1.68.7s-1.22-.23-1.68-.7Z"/><path class="cls-2" d="m178.58,4.05c-.46-.46-.7-1.02-.7-1.68s.23-1.22.7-1.68c.46-.46,1.02-.7,1.68-.7s1.22.23,1.68.7c.46.46.7,1.02.7,1.68s-.23,1.22-.7,1.68-1.02.7-1.68.7-1.22-.23-1.68-.7Zm0,5.94c-.46-.46-.7-1.02-.7-1.68s.23-1.22.7-1.68c.46-.46,1.02-.7,1.68-.7s1.22.23,1.68.7c.46.46.7,1.02.7,1.68s-.23,1.22-.7,1.68-1.02.7-1.68.7-1.22-.23-1.68-.7Zm0,5.92c-.46-.46-.7-1.02-.7-1.68s.23-1.2.7-1.67c.46-.46,1.02-.7,1.68-.7s1.22.23,1.68.7c.46.46.7,1.02.7,1.67s-.23,1.22-.7,1.68c-.46.46-1.02.7-1.68.7s-1.22-.23-1.68-.7Zm0,5.94c-.46-.46-.7-1.02-.7-1.68s.23-1.22.7-1.68c.46-.46,1.02-.7,1.68-.7s1.22.23,1.68.7c.46.46.7,1.02.7,1.68s-.23,1.22-.7,1.68c-.46.46-1.02.7-1.68.7s-1.22-.23-1.68-.7Zm5.94,5.94c-.46-.46-.7-1.02-.7-1.68s.23-1.22.7-1.68c.46-.46,1.02-.7,1.68-.7s1.22.23,1.68.7c.46.46.7,1.02.7,1.68s-.23,1.22-.7,1.68c-.46.46-1.02.7-1.68.7s-1.22-.23-1.68-.7Zm5.94,0c-.46-.46-.7-1.02-.7-1.68s.23-1.22.7-1.68c.46-.46,1.02-.7,1.68-.7s1.2.23,1.67.7c.46.46.7,1.02.7,1.68s-.23,1.22-.7,1.68c-.46.46-1.02.7-1.67.7s-1.22-.23-1.68-.7Zm5.92,0c-.46-.46-.7-1.02-.7-1.68s.23-1.22.7-1.68,1.02-.7,1.68-.7,1.22.23,1.68.7c.46.46.7,1.02.7,1.68s-.23,1.22-.7,1.68c-.46.46-1.02.7-1.68.7s-1.22-.23-1.68-.7Zm5.94-23.73c-.46-.46-.7-1.02-.7-1.68s.23-1.22.7-1.68,1.02-.7,1.68-.7,1.22.23,1.68.7c.46.46.7,1.02.7,1.68s-.23,1.22-.7,1.68-1.02.7-1.68.7-1.22-.23-1.68-.7Zm0,5.94c-.46-.46-.7-1.02-.7-1.68s.23-1.22.7-1.68,1.02-.7,1.68-.7,1.22.23,1.68.7c.46.46.7,1.02.7,1.68s-.23,1.22-.7,1.68-1.02.7-1.68.7-1.22-.23-1.68-.7Zm0,5.92c-.46-.46-.7-1.02-.7-1.68s.23-1.2.7-1.67c.46-.46,1.02-.7,1.68-.7s1.22.23,1.68.7c.46.46.7,1.02.7,1.67s-.23,1.22-.7,1.68c-.46.46-1.02.7-1.68.7s-1.22-.23-1.68-.7Zm0,5.94c-.46-.46-.7-1.02-.7-1.68s.23-1.22.7-1.68,1.02-.7,1.68-.7,1.22.23,1.68.7c.46.46.7,1.02.7,1.68s-.23,1.22-.7,1.68c-.46.46-1.02.7-1.68.7s-1.22-.23-1.68-.7Z"/><path class="cls-2" d="m214.16,9.99c-.46-.46-.7-1.02-.7-1.68s.23-1.22.7-1.68c.46-.46,1.02-.7,1.68-.7s1.22.23,1.68.7c.46.46.7,1.02.7,1.68s-.23,1.22-.7,1.68-1.02.7-1.68.7-1.22-.23-1.68-.7Zm0,17.8c-.46-.46-.7-1.02-.7-1.68s.23-1.22.7-1.68c.46-.46,1.02-.7,1.68-.7s1.22.23,1.68.7c.46.46.7,1.02.7,1.68s-.23,1.22-.7,1.68c-.46.46-1.02.7-1.68.7s-1.22-.23-1.68-.7Zm5.94-23.73c-.46-.46-.7-1.02-.7-1.68s.23-1.22.7-1.68c.46-.46,1.02-.7,1.68-.7s1.22.23,1.68.7c.46.46.7,1.02.7,1.68s-.23,1.22-.7,1.68-1.02.7-1.68.7-1.22-.23-1.68-.7Zm0,11.86c-.46-.46-.7-1.02-.7-1.68s.23-1.2.7-1.67c.46-.46,1.02-.7,1.68-.7s1.22.23,1.68.7c.46.46.7,1.02.7,1.67s-.23,1.22-.7,1.68c-.46.46-1.02.7-1.68.7s-1.22-.23-1.68-.7Zm0,11.87c-.46-.46-.7-1.02-.7-1.68s.23-1.22.7-1.68c.46-.46,1.02-.7,1.68-.7s1.22.23,1.68.7c.46.46.7,1.02.7,1.68s-.23,1.22-.7,1.68c-.46.46-1.02.7-1.68.7s-1.22-.23-1.68-.7Zm5.94-23.73c-.46-.46-.7-1.02-.7-1.68s.23-1.22.7-1.68c.46-.46,1.02-.7,1.68-.7s1.2.23,1.67.7c.46.46.7,1.02.7,1.68s-.23,1.22-.7,1.68c-.46.46-1.02.7-1.67.7s-1.22-.23-1.68-.7Zm0,11.86c-.46-.46-.7-1.02-.7-1.68s.23-1.2.7-1.67c.46-.46,1.02-.7,1.68-.7s1.2.23,1.67.7.7,1.02.7,1.67-.23,1.22-.7,1.68c-.46.46-1.02.7-1.67.7s-1.22-.23-1.68-.7Zm0,11.87c-.46-.46-.7-1.02-.7-1.68s.23-1.22.7-1.68c.46-.46,1.02-.7,1.68-.7s1.2.23,1.67.7c.46.46.7,1.02.7,1.68s-.23,1.22-.7,1.68c-.46.46-1.02.7-1.67.7s-1.22-.23-1.68-.7Zm5.92-23.73c-.46-.46-.7-1.02-.7-1.68s.23-1.22.7-1.68,1.02-.7,1.68-.7,1.22.23,1.68.7c.46.46.7,1.02.7,1.68s-.23,1.22-.7,1.68-1.02.7-1.68.7-1.22-.23-1.68-.7Zm0,11.86c-.46-.46-.7-1.02-.7-1.68s.23-1.2.7-1.67c.46-.46,1.02-.7,1.68-.7s1.22.23,1.68.7c.46.46.7,1.02.7,1.67s-.23,1.22-.7,1.68c-.46.46-1.02.7-1.68.7s-1.22-.23-1.68-.7Zm0,11.87c-.46-.46-.7-1.02-.7-1.68s.23-1.22.7-1.68,1.02-.7,1.68-.7,1.22.23,1.68.7c.46.46.7,1.02.7,1.68s-.23,1.22-.7,1.68c-.46.46-1.02.7-1.68.7s-1.22-.23-1.68-.7Zm5.94-23.73c-.46-.46-.7-1.02-.7-1.68s.23-1.22.7-1.68,1.02-.7,1.68-.7,1.22.23,1.68.7c.46.46.7,1.02.7,1.68s-.23,1.22-.7,1.68-1.02.7-1.68.7-1.22-.23-1.68-.7Zm0,17.8c-.46-.46-.7-1.02-.7-1.68s.23-1.22.7-1.68,1.02-.7,1.68-.7,1.22.23,1.68.7c.46.46.7,1.02.7,1.68s-.23,1.22-.7,1.68c-.46.46-1.02.7-1.68.7s-1.22-.23-1.68-.7Z"/><path class="cls-2" d="m249.73,4.05c-.46-.46-.7-1.02-.7-1.68s.23-1.22.7-1.68c.46-.46,1.02-.7,1.68-.7s1.22.23,1.68.7c.46.46.7,1.02.7,1.68s-.23,1.22-.7,1.68-1.02.7-1.68.7-1.22-.23-1.68-.7Zm0,5.94c-.46-.46-.7-1.02-.7-1.68s.23-1.22.7-1.68c.46-.46,1.02-.7,1.68-.7s1.22.23,1.68.7c.46.46.7,1.02.7,1.68s-.23,1.22-.7,1.68-1.02.7-1.68.7-1.22-.23-1.68-.7Zm0,5.92c-.46-.46-.7-1.02-.7-1.68s.23-1.2.7-1.67c.46-.46,1.02-.7,1.68-.7s1.22.23,1.68.7c.46.46.7,1.02.7,1.67s-.23,1.22-.7,1.68c-.46.46-1.02.7-1.68.7s-1.22-.23-1.68-.7Zm0,5.94c-.46-.46-.7-1.02-.7-1.68s.23-1.22.7-1.68c.46-.46,1.02-.7,1.68-.7s1.22.23,1.68.7c.46.46.7,1.02.7,1.68s-.23,1.22-.7,1.68c-.46.46-1.02.7-1.68.7s-1.22-.23-1.68-.7Zm0,5.94c-.46-.46-.7-1.02-.7-1.68s.23-1.22.7-1.68c.46-.46,1.02-.7,1.68-.7s1.22.23,1.68.7c.46.46.7,1.02.7,1.68s-.23,1.22-.7,1.68c-.46.46-1.02.7-1.68.7s-1.22-.23-1.68-.7Zm5.94-23.73c-.46-.46-.7-1.02-.7-1.68s.23-1.22.7-1.68c.46-.46,1.02-.7,1.68-.7s1.22.23,1.68.7c.46.46.7,1.02.7,1.68s-.23,1.22-.7,1.68-1.02.7-1.68.7-1.22-.23-1.68-.7Zm0,11.86c-.46-.46-.7-1.02-.7-1.68s.23-1.2.7-1.67c.46-.46,1.02-.7,1.68-.7s1.22.23,1.68.7c.46.46.7,1.02.7,1.67s-.23,1.22-.7,1.68c-.46.46-1.02.7-1.68.7s-1.22-.23-1.68-.7Zm0,11.87c-.46-.46-.7-1.02-.7-1.68s.23-1.22.7-1.68c.46-.46,1.02-.7,1.68-.7s1.22.23,1.68.7c.46.46.7,1.02.7,1.68s-.23,1.22-.7,1.68c-.46.46-1.02.7-1.68.7s-1.22-.23-1.68-.7Zm5.94-23.73c-.46-.46-.7-1.02-.7-1.68s.23-1.22.7-1.68c.46-.46,1.02-.7,1.68-.7s1.2.23,1.67.7c.46.46.7,1.02.7,1.68s-.23,1.22-.7,1.68c-.46.46-1.02.7-1.67.7s-1.22-.23-1.68-.7Zm0,11.86c-.46-.46-.7-1.02-.7-1.68s.23-1.2.7-1.67c.46-.46,1.02-.7,1.68-.7s1.2.23,1.67.7.7,1.02.7,1.67-.23,1.22-.7,1.68c-.46.46-1.02.7-1.67.7s-1.22-.23-1.68-.7Zm0,11.87c-.46-.46-.7-1.02-.7-1.68s.23-1.22.7-1.68c.46-.46,1.02-.7,1.68-.7s1.2.23,1.67.7c.46.46.7,1.02.7,1.68s-.23,1.22-.7,1.68c-.46.46-1.02.7-1.67.7s-1.22-.23-1.68-.7Zm5.92-23.73c-.46-.46-.7-1.02-.7-1.68s.23-1.22.7-1.68,1.02-.7,1.68-.7,1.22.23,1.68.7c.46.46.7,1.02.7,1.68s-.23,1.22-.7,1.68-1.02.7-1.68.7-1.22-.23-1.68-.7Zm0,23.73c-.46-.46-.7-1.02-.7-1.68s.23-1.22.7-1.68,1.02-.7,1.68-.7,1.22.23,1.68.7c.46.46.7,1.02.7,1.68s-.23,1.22-.7,1.68c-.46.46-1.02.7-1.68.7s-1.22-.23-1.68-.7Zm5.94-23.73c-.46-.46-.7-1.02-.7-1.68s.23-1.22.7-1.68,1.02-.7,1.68-.7,1.22.23,1.68.7c.46.46.7,1.02.7,1.68s-.23,1.22-.7,1.68-1.02.7-1.68.7-1.22-.23-1.68-.7Zm0,23.73c-.46-.46-.7-1.02-.7-1.68s.23-1.22.7-1.68,1.02-.7,1.68-.7,1.22.23,1.68.7c.46.46.7,1.02.7,1.68s-.23,1.22-.7,1.68c-.46.46-1.02.7-1.68.7s-1.22-.23-1.68-.7Z"/><path class="cls-2" d="m285.31,27.79c-.46-.46-.7-1.02-.7-1.68s.23-1.22.7-1.68c.46-.46,1.02-.7,1.68-.7s1.22.23,1.68.7c.46.46.7,1.02.7,1.68s-.23,1.22-.7,1.68c-.46.46-1.02.7-1.68.7s-1.22-.23-1.68-.7Z"/><path class="cls-2" d="m297.46,4.05c-.46-.46-.7-1.02-.7-1.68s.23-1.22.7-1.68c.46-.46,1.02-.7,1.68-.7s1.22.23,1.68.7c.46.46.7,1.02.7,1.68s-.23,1.22-.7,1.68-1.02.7-1.68.7-1.22-.23-1.68-.7Zm0,5.94c-.46-.46-.7-1.02-.7-1.68s.23-1.22.7-1.68c.46-.46,1.02-.7,1.68-.7s1.22.23,1.68.7c.46.46.7,1.02.7,1.68s-.23,1.22-.7,1.68-1.02.7-1.68.7-1.22-.23-1.68-.7Zm0,5.92c-.46-.46-.7-1.02-.7-1.68s.23-1.2.7-1.67c.46-.46,1.02-.7,1.68-.7s1.22.23,1.68.7c.46.46.7,1.02.7,1.67s-.23,1.22-.7,1.68c-.46.46-1.02.7-1.68.7s-1.22-.23-1.68-.7Zm0,5.94c-.46-.46-.7-1.02-.7-1.68s.23-1.22.7-1.68c.46-.46,1.02-.7,1.68-.7s1.22.23,1.68.7c.46.46.7,1.02.7,1.68s-.23,1.22-.7,1.68c-.46.46-1.02.7-1.68.7s-1.22-.23-1.68-.7Zm0,5.94c-.46-.46-.7-1.02-.7-1.68s.23-1.22.7-1.68c.46-.46,1.02-.7,1.68-.7s1.22.23,1.68.7c.46.46.7,1.02.7,1.68s-.23,1.22-.7,1.68c-.46.46-1.02.7-1.68.7s-1.22-.23-1.68-.7Zm5.94-17.8c-.46-.46-.7-1.02-.7-1.68s.23-1.22.7-1.68c.46-.46,1.02-.7,1.68-.7s1.22.23,1.68.7c.46.46.7,1.02.7,1.68s-.23,1.22-.7,1.68-1.02.7-1.68.7-1.22-.23-1.68-.7Zm5.94,5.92c-.46-.46-.7-1.02-.7-1.68s.23-1.2.7-1.67c.46-.46,1.02-.7,1.68-.7s1.2.23,1.67.7.7,1.02.7,1.67-.23,1.22-.7,1.68c-.46.46-1.02.7-1.67.7s-1.22-.23-1.68-.7Zm5.92,5.94c-.46-.46-.7-1.02-.7-1.68s.23-1.22.7-1.68,1.02-.7,1.68-.7,1.22.23,1.68.7c.46.46.7,1.02.7,1.68s-.23,1.22-.7,1.68c-.46.46-1.02.7-1.68.7s-1.22-.23-1.68-.7Zm5.94-17.8c-.46-.46-.7-1.02-.7-1.68s.23-1.22.7-1.68,1.02-.7,1.68-.7,1.22.23,1.68.7c.46.46.7,1.02.7,1.68s-.23,1.22-.7,1.68-1.02.7-1.68.7-1.22-.23-1.68-.7Zm0,5.94c-.46-.46-.7-1.02-.7-1.68s.23-1.22.7-1.68,1.02-.7,1.68-.7,1.22.23,1.68.7c.46.46.7,1.02.7,1.68s-.23,1.22-.7,1.68-1.02.7-1.68.7-1.22-.23-1.68-.7Zm0,5.92c-.46-.46-.7-1.02-.7-1.68s.23-1.2.7-1.67c.46-.46,1.02-.7,1.68-.7s1.22.23,1.68.7c.46.46.7,1.02.7,1.67s-.23,1.22-.7,1.68c-.46.46-1.02.7-1.68.7s-1.22-.23-1.68-.7Zm0,5.94c-.46-.46-.7-1.02-.7-1.68s.23-1.22.7-1.68,1.02-.7,1.68-.7,1.22.23,1.68.7c.46.46.7,1.02.7,1.68s-.23,1.22-.7,1.68c-.46.46-1.02.7-1.68.7s-1.22-.23-1.68-.7Zm0,5.94c-.46-.46-.7-1.02-.7-1.68s.23-1.22.7-1.68,1.02-.7,1.68-.7,1.22.23,1.68.7c.46.46.7,1.02.7,1.68s-.23,1.22-.7,1.68c-.46.46-1.02.7-1.68.7s-1.22-.23-1.68-.7Z"/><path class="cls-2" d="m333.03,4.05c-.46-.46-.7-1.02-.7-1.68s.23-1.22.7-1.68c.46-.46,1.02-.7,1.68-.7s1.22.23,1.68.7c.46.46.7,1.02.7,1.68s-.23,1.22-.7,1.68-1.02.7-1.68.7-1.22-.23-1.68-.7Zm0,5.94c-.46-.46-.7-1.02-.7-1.68s.23-1.22.7-1.68c.46-.46,1.02-.7,1.68-.7s1.22.23,1.68.7c.46.46.7,1.02.7,1.68s-.23,1.22-.7,1.68-1.02.7-1.68.7-1.22-.23-1.68-.7Zm0,5.92c-.46-.46-.7-1.02-.7-1.68s.23-1.2.7-1.67c.46-.46,1.02-.7,1.68-.7s1.22.23,1.68.7c.46.46.7,1.02.7,1.67s-.23,1.22-.7,1.68c-.46.46-1.02.7-1.68.7s-1.22-.23-1.68-.7Zm0,5.94c-.46-.46-.7-1.02-.7-1.68s.23-1.22.7-1.68c.46-.46,1.02-.7,1.68-.7s1.22.23,1.68.7c.46.46.7,1.02.7,1.68s-.23,1.22-.7,1.68c-.46.46-1.02.7-1.68.7s-1.22-.23-1.68-.7Zm0,5.94c-.46-.46-.7-1.02-.7-1.68s.23-1.22.7-1.68c.46-.46,1.02-.7,1.68-.7s1.22.23,1.68.7c.46.46.7,1.02.7,1.68s-.23,1.22-.7,1.68c-.46.46-1.02.7-1.68.7s-1.22-.23-1.68-.7Zm5.94-23.73c-.46-.46-.7-1.02-.7-1.68s.23-1.22.7-1.68c.46-.46,1.02-.7,1.68-.7s1.22.23,1.68.7c.46.46.7,1.02.7,1.68s-.23,1.22-.7,1.68-1.02.7-1.68.7-1.22-.23-1.68-.7Zm0,11.86c-.46-.46-.7-1.02-.7-1.68s.23-1.2.7-1.67c.46-.46,1.02-.7,1.68-.7s1.22.23,1.68.7c.46.46.7,1.02.7,1.67s-.23,1.22-.7,1.68c-.46.46-1.02.7-1.68.7s-1.22-.23-1.68-.7Zm0,11.87c-.46-.46-.7-1.02-.7-1.68s.23-1.22.7-1.68c.46-.46,1.02-.7,1.68-.7s1.22.23,1.68.7c.46.46.7,1.02.7,1.68s-.23,1.22-.7,1.68c-.46.46-1.02.7-1.68.7s-1.22-.23-1.68-.7Zm5.94-23.73c-.46-.46-.7-1.02-.7-1.68s.23-1.22.7-1.68c.46-.46,1.02-.7,1.68-.7s1.2.23,1.67.7c.46.46.7,1.02.7,1.68s-.23,1.22-.7,1.68c-.46.46-1.02.7-1.67.7s-1.22-.23-1.68-.7Zm0,11.86c-.46-.46-.7-1.02-.7-1.68s.23-1.2.7-1.67c.46-.46,1.02-.7,1.68-.7s1.2.23,1.67.7.7,1.02.7,1.67-.23,1.22-.7,1.68c-.46.46-1.02.7-1.67.7s-1.22-.23-1.68-.7Zm0,11.87c-.46-.46-.7-1.02-.7-1.68s.23-1.22.7-1.68c.46-.46,1.02-.7,1.68-.7s1.2.23,1.67.7c.46.46.7,1.02.7,1.68s-.23,1.22-.7,1.68c-.46.46-1.02.7-1.67.7s-1.22-.23-1.68-.7Zm5.92-23.73c-.46-.46-.7-1.02-.7-1.68s.23-1.22.7-1.68,1.02-.7,1.68-.7,1.22.23,1.68.7c.46.46.7,1.02.7,1.68s-.23,1.22-.7,1.68-1.02.7-1.68.7-1.22-.23-1.68-.7Zm0,23.73c-.46-.46-.7-1.02-.7-1.68s.23-1.22.7-1.68,1.02-.7,1.68-.7,1.22.23,1.68.7c.46.46.7,1.02.7,1.68s-.23,1.22-.7,1.68c-.46.46-1.02.7-1.68.7s-1.22-.23-1.68-.7Zm5.94-23.73c-.46-.46-.7-1.02-.7-1.68s.23-1.22.7-1.68,1.02-.7,1.68-.7,1.22.23,1.68.7c.46.46.7,1.02.7,1.68s-.23,1.22-.7,1.68-1.02.7-1.68.7-1.22-.23-1.68-.7Zm0,23.73c-.46-.46-.7-1.02-.7-1.68s.23-1.22.7-1.68,1.02-.7,1.68-.7,1.22.23,1.68.7c.46.46.7,1.02.7,1.68s-.23,1.22-.7,1.68c-.46.46-1.02.7-1.68.7s-1.22-.23-1.68-.7Z"/><path class="cls-2" d="m368.61,4.05c-.46-.46-.7-1.02-.7-1.68s.23-1.22.7-1.68c.46-.46,1.02-.7,1.68-.7s1.22.23,1.68.7c.46.46.7,1.02.7,1.68s-.23,1.22-.7,1.68-1.02.7-1.68.7-1.22-.23-1.68-.7Zm5.94,0c-.46-.46-.7-1.02-.7-1.68s.23-1.22.7-1.68c.46-.46,1.02-.7,1.68-.7s1.22.23,1.68.7c.46.46.7,1.02.7,1.68s-.23,1.22-.7,1.68-1.02.7-1.68.7-1.22-.23-1.68-.7Zm5.94,0c-.46-.46-.7-1.02-.7-1.68s.23-1.22.7-1.68c.46-.46,1.02-.7,1.68-.7s1.2.23,1.67.7c.46.46.7,1.02.7,1.68s-.23,1.22-.7,1.68c-.46.46-1.02.7-1.67.7s-1.22-.23-1.68-.7Zm0,5.94c-.46-.46-.7-1.02-.7-1.68s.23-1.22.7-1.68c.46-.46,1.02-.7,1.68-.7s1.2.23,1.67.7c.46.46.7,1.02.7,1.68s-.23,1.22-.7,1.68c-.46.46-1.02.7-1.67.7s-1.22-.23-1.68-.7Zm0,5.92c-.46-.46-.7-1.02-.7-1.68s.23-1.2.7-1.67c.46-.46,1.02-.7,1.68-.7s1.2.23,1.67.7.7,1.02.7,1.67-.23,1.22-.7,1.68c-.46.46-1.02.7-1.67.7s-1.22-.23-1.68-.7Zm0,5.94c-.46-.46-.7-1.02-.7-1.68s.23-1.22.7-1.68c.46-.46,1.02-.7,1.68-.7s1.2.23,1.67.7c.46.46.7,1.02.7,1.68s-.23,1.22-.7,1.68c-.46.46-1.02.7-1.67.7s-1.22-.23-1.68-.7Zm0,5.94c-.46-.46-.7-1.02-.7-1.68s.23-1.22.7-1.68c.46-.46,1.02-.7,1.68-.7s1.2.23,1.67.7c.46.46.7,1.02.7,1.68s-.23,1.22-.7,1.68c-.46.46-1.02.7-1.67.7s-1.22-.23-1.68-.7Zm5.92-23.73c-.46-.46-.7-1.02-.7-1.68s.23-1.22.7-1.68,1.02-.7,1.68-.7,1.22.23,1.68.7c.46.46.7,1.02.7,1.68s-.23,1.22-.7,1.68-1.02.7-1.68.7-1.22-.23-1.68-.7Zm5.94,0c-.46-.46-.7-1.02-.7-1.68s.23-1.22.7-1.68,1.02-.7,1.68-.7,1.22.23,1.68.7c.46.46.7,1.02.7,1.68s-.23,1.22-.7,1.68-1.02.7-1.68.7-1.22-.23-1.68-.7Z"/></svg>